<svg id="Capa_1" data-name="Capa 1" xmlns="http://www.w3.org/2000/svg" xmlns:xlink="http://www.w3.org/1999/xlink" viewBox="0 0 345 345"><defs><style>.cls-1,.cls-18,.cls-19,.cls-5,.cls-7{stroke:#0c9;}.cls-1,.cls-11,.cls-12,.cls-13,.cls-14,.cls-15,.cls-16,.cls-17,.cls-18,.cls-19,.cls-4,.cls-5,.cls-7,.cls-8{stroke-miterlimit:10;}.cls-1,.cls-11,.cls-12,.cls-13,.cls-14,.cls-15,.cls-16,.cls-17,.cls-18,.cls-19,.cls-7{stroke-width:0.59px;}.cls-1{fill:url(#Rayas_copia_2);}.cls-17,.cls-18,.cls-19,.cls-2,.cls-4,.cls-5,.cls-7,.cls-8{fill:none;}.cls-3{clip-path:url(#clip-path-2);}.cls-13,.cls-14,.cls-17,.cls-4{stroke:#036;}.cls-4{stroke-width:0.6px;}.cls-6{clip-path:url(#clip-path-3);}.cls-7{clip-path:url(#clip-path);}.cls-11,.cls-12,.cls-15,.cls-16,.cls-8{stroke:#ccc;}.cls-9{fill:url(#Rayas_copia_2-3);}.cls-10{clip-path:url(#clip-path-6);}.cls-11,.cls-13{fill:#fff;}.cls-12{fill:url(#Rayas_2);}.cls-14,.cls-16{fill:#f4f5ff;}.cls-15{fill:url(#Rayas_2-3);}.cls-18{stroke-dasharray:30.68 30.68;}</style><pattern id="Rayas_copia_2" data-name="Rayas copia 2" width="66.19" height="66.19" patternTransform="translate(-370.33 -785.13) scale(0.88)" patternUnits="userSpaceOnUse" viewBox="0 0 66.19 66.19"><rect class="cls-2" width="66.19" height="66.19"/><g class="cls-3"><line class="cls-4" x1="-45.13" y1="21.27" x2="25.45" y2="-49.31"/><line class="cls-4" x1="-37.2" y1="29.2" x2="33.37" y2="-41.38"/><line class="cls-5" x1="-29.28" y1="34.33" x2="41.3" y2="-36.24"/><line class="cls-5" x1="-21.35" y1="42.26" x2="49.23" y2="-28.32"/><line class="cls-5" x1="-13.42" y1="50.07" x2="57.16" y2="-20.51"/><line class="cls-5" x1="-5.49" y1="58.11" x2="65.08" y2="-12.46"/><line class="cls-5" x1="2.43" y1="68.83" x2="73.01" y2="-1.74"/><line class="cls-5" x1="10.36" y1="76.76" x2="80.94" y2="6.18"/><line class="cls-5" x1="18.29" y1="84.69" x2="88.86" y2="14.11"/><line class="cls-5" x1="26.21" y1="92.61" x2="96.79" y2="22.04"/><line class="cls-4" x1="34.14" y1="100.54" x2="104.72" y2="29.96"/><line class="cls-4" x1="42.07" y1="108.47" x2="112.64" y2="37.89"/></g><g class="cls-6"><line class="cls-5" x1="2.43" y1="2.64" x2="73.01" y2="-67.94"/><line class="cls-5" x1="10.36" y1="10.57" x2="80.94" y2="-60.01"/><line class="cls-5" x1="18.29" y1="18.49" x2="88.86" y2="-52.08"/><line class="cls-5" x1="26.21" y1="26.42" x2="96.79" y2="-44.16"/><line class="cls-4" x1="34.14" y1="34.35" x2="104.72" y2="-36.23"/><line class="cls-4" x1="42.07" y1="42.27" x2="112.64" y2="-28.3"/></g></pattern><clipPath id="clip-path"><circle class="cls-1" cx="172.5" cy="172.5" r="172.5"/></clipPath><clipPath id="clip-path-2"><rect class="cls-2" y="0.41" width="66.19" height="66.19"/></clipPath><clipPath id="clip-path-3"><rect class="cls-2" y="-65.79" width="66.19" height="66.19"/></clipPath><pattern id="Rayas_copia_2-3" data-name="Rayas copia 2" width="66.19" height="66.19" patternTransform="translate(-370.33 -785.13) scale(0.88)" patternUnits="userSpaceOnUse" viewBox="0 0 66.19 66.19"><rect class="cls-2" width="66.19" height="66.19"/><g class="cls-3"><line class="cls-4" x1="-45.13" y1="21.27" x2="25.45" y2="-49.31"/><line class="cls-4" x1="-37.2" y1="29.2" x2="33.37" y2="-41.38"/><line class="cls-5" x1="-29.28" y1="34.33" x2="41.3" y2="-36.24"/><line class="cls-5" x1="-21.35" y1="42.26" x2="49.23" y2="-28.32"/><line class="cls-5" x1="-13.42" y1="50.07" x2="57.16" y2="-20.51"/><line class="cls-5" x1="-5.49" y1="58.11" x2="65.08" y2="-12.46"/><line class="cls-5" x1="2.43" y1="68.83" x2="73.01" y2="-1.74"/><line class="cls-5" x1="10.36" y1="76.76" x2="80.94" y2="6.18"/><line class="cls-5" x1="18.29" y1="84.69" x2="88.86" y2="14.11"/><line class="cls-5" x1="26.21" y1="92.61" x2="96.79" y2="22.04"/><line class="cls-4" x1="34.14" y1="100.54" x2="104.72" y2="29.96"/><line class="cls-4" x1="42.07" y1="108.47" x2="112.64" y2="37.89"/></g><g class="cls-6"><line class="cls-5" x1="2.43" y1="2.64" x2="73.01" y2="-67.94"/><line class="cls-5" x1="10.36" y1="10.57" x2="80.94" y2="-60.01"/><line class="cls-5" x1="18.29" y1="18.49" x2="88.86" y2="-52.08"/><line class="cls-5" x1="26.21" y1="26.42" x2="96.79" y2="-44.16"/><line class="cls-4" x1="34.14" y1="34.35" x2="104.72" y2="-36.23"/><line class="cls-4" x1="42.07" y1="42.27" x2="112.64" y2="-28.3"/></g></pattern><clipPath id="clip-path-6"><circle class="cls-7" cx="172.5" cy="172.5" r="172.5"/></clipPath><pattern id="Rayas_2" data-name="Rayas 2" width="66.19" height="66.19" patternTransform="translate(-12.27 -143.27) scale(0.25 0.25)" patternUnits="userSpaceOnUse" viewBox="0 0 66.19 66.19"><rect class="cls-2" width="66.19" height="66.19"/><g class="cls-3"><line class="cls-4" x1="-45.13" y1="21.27" x2="25.45" y2="-49.31"/><line class="cls-4" x1="-37.2" y1="29.2" x2="33.37" y2="-41.38"/><line class="cls-8" x1="-29.28" y1="34.33" x2="41.3" y2="-36.24"/><line class="cls-8" x1="-21.35" y1="42.26" x2="49.23" y2="-28.32"/><line class="cls-8" x1="-13.42" y1="50.07" x2="57.16" y2="-20.51"/><line class="cls-8" x1="-5.49" y1="58.11" x2="65.08" y2="-12.46"/><line class="cls-8" x1="2.43" y1="68.83" x2="73.01" y2="-1.74"/><line class="cls-8" x1="10.36" y1="76.76" x2="80.94" y2="6.18"/><line class="cls-8" x1="18.29" y1="84.69" x2="88.86" y2="14.11"/><line class="cls-8" x1="26.21" y1="92.61" x2="96.79" y2="22.04"/><line class="cls-4" x1="34.14" y1="100.54" x2="104.72" y2="29.96"/><line class="cls-4" x1="42.07" y1="108.47" x2="112.64" y2="37.89"/></g><g class="cls-6"><line class="cls-8" x1="2.43" y1="2.64" x2="73.01" y2="-67.94"/><line class="cls-8" x1="10.36" y1="10.57" x2="80.94" y2="-60.01"/><line class="cls-8" x1="18.29" y1="18.49" x2="88.86" y2="-52.08"/><line class="cls-8" x1="26.21" y1="26.42" x2="96.79" y2="-44.16"/><line class="cls-4" x1="34.14" y1="34.35" x2="104.72" y2="-36.23"/><line class="cls-4" x1="42.07" y1="42.27" x2="112.64" y2="-28.3"/></g></pattern><pattern id="Rayas_2-3" data-name="Rayas 2" width="66.19" height="66.19" patternTransform="translate(-51.32 -143.27) scale(0.25 0.25)" patternUnits="userSpaceOnUse" viewBox="0 0 66.19 66.19"><rect class="cls-2" width="66.19" height="66.19"/><g class="cls-3"><line class="cls-4" x1="-45.13" y1="21.27" x2="25.45" y2="-49.31"/><line class="cls-4" x1="-37.2" y1="29.2" x2="33.37" y2="-41.38"/><line class="cls-8" x1="-29.28" y1="34.33" x2="41.3" y2="-36.24"/><line class="cls-8" x1="-21.35" y1="42.26" x2="49.23" y2="-28.32"/><line class="cls-8" x1="-13.42" y1="50.07" x2="57.16" y2="-20.51"/><line class="cls-8" x1="-5.49" y1="58.11" x2="65.08" y2="-12.46"/><line class="cls-8" x1="2.43" y1="68.83" x2="73.01" y2="-1.74"/><line class="cls-8" x1="10.36" y1="76.76" x2="80.94" y2="6.18"/><line class="cls-8" x1="18.29" y1="84.69" x2="88.86" y2="14.11"/><line class="cls-8" x1="26.21" y1="92.61" x2="96.79" y2="22.04"/><line class="cls-4" x1="34.14" y1="100.54" x2="104.72" y2="29.96"/><line class="cls-4" x1="42.07" y1="108.47" x2="112.64" y2="37.89"/></g><g class="cls-6"><line class="cls-8" x1="2.43" y1="2.64" x2="73.01" y2="-67.94"/><line class="cls-8" x1="10.36" y1="10.57" x2="80.94" y2="-60.01"/><line class="cls-8" x1="18.29" y1="18.49" x2="88.86" y2="-52.08"/><line class="cls-8" x1="26.21" y1="26.42" x2="96.79" y2="-44.16"/><line class="cls-4" x1="34.14" y1="34.35" x2="104.72" y2="-36.23"/><line class="cls-4" x1="42.07" y1="42.27" x2="112.64" y2="-28.3"/></g></pattern></defs><circle class="cls-9" cx="172.5" cy="172.5" r="172.5"/><g class="cls-10"><rect class="cls-11" x="-33.58" y="69.33" width="401.51" height="201.68"/><rect class="cls-12" x="-33.58" y="69.33" width="401.51" height="201.68"/><path class="cls-13" d="M311.3,424.17,232,459.52l-38.23-85.7-33.56-43.54a65.53,65.53,0,0,1-9.11-11.82l0,0-30.28-42.79,56.63-53.14,46.94-3.11c.77,24.45-10.25,48.84-11,72.81a41.12,41.12,0,0,0,9.8,27.92,38.14,38.14,0,0,0,29.09,13.47c1.3,0,2.6-.06,3.91-.19l14.45-1.5a1.27,1.27,0,0,1,0,.37c-.18.34,1.07,3.34,2.38,6.24l.09,0Z"/><path class="cls-13" d="M138.13,299.23a80,80,0,0,1,30-35.17"/><path class="cls-13" d="M254.51,343.11a22.68,22.68,0,0,0,15.72-10.35"/><path class="cls-13" d="M118,209.08l-21.92-13.9a10.61,10.61,0,0,1-4.8-10.64l.08-.53a10.67,10.67,0,0,1,4.76-7.28h0a10.62,10.62,0,0,1,11.43,0l22.09,14Z"/><path class="cls-13" d="M122.63,239.84,100.71,226a10.64,10.64,0,0,1-4.8-10.65l.09-.53a10.58,10.58,0,0,1,4.75-7.27h0a10.64,10.64,0,0,1,11.43,0l22.09,14Z"/><path class="cls-13" d="M123.76,280.38l-21.91-13.9A10.63,10.63,0,0,1,97,255.84l.09-.53a10.61,10.61,0,0,1,4.76-7.28h0a10.62,10.62,0,0,1,11.42,0l22.1,14Z"/><g id="Teléfono_móvil" data-name="Teléfono móvil"><path id="Trazo" class="cls-14" d="M212.58,282.09H124.9A12.8,12.8,0,0,1,112,269.2v-208A12.83,12.83,0,0,1,124.9,48.29h87.68a12.71,12.71,0,0,1,12.89,12.89v208A12.68,12.68,0,0,1,212.58,282.09Z"/><path id="Trazo-2" data-name="Trazo" class="cls-14" d="M177.49,63.33a.81.81,0,0,1-.86.86H161.15a.86.86,0,1,1,0-1.72h15.48a.82.82,0,0,1,.86.86Z"/><path id="Trazo-3" data-name="Trazo" class="cls-14" d="M170.61,56.31a1.72,1.72,0,1,1-1.72-1.72,1.72,1.72,0,0,1,1.72,1.72Z"/><path id="Trazo-4" data-name="Trazo" class="cls-14" d="M151.7,63.19A1.72,1.72,0,1,1,150,61.47a1.71,1.71,0,0,1,1.72,1.72Z"/><path id="Trazo-5" data-name="Trazo" class="cls-14" d="M227.19,99.43h-1.72v16.33h1.72c-.11,0,0-.15,0,0V99.43c0,.15-.11,0,0,0Z"/><path id="Trazo-6" data-name="Trazo" class="cls-14" d="M112,77.8h0c-.58,0-.86.15-.86,0v7.73c0-.15.28,0,.86,0h0V77.8Z"/><path id="Trazo-7" data-name="Trazo" class="cls-14" d="M112,99h-.86c.2,0,0,.16,0,0v16.33c0-.15.2,0,0,0H112V99Z"/><path id="Trazo-8" data-name="Trazo" class="cls-14" d="M112,120.49h-.86c.2,0,0,.15,0,0v16.33c0-.15.2,0,0,0H112V120.49Z"/><polygon id="_TU_IMAGEN_AQUÍ_" data-name="[TU IMAGEN AQUÍ]" class="cls-11" points="220.75 68.35 220.75 68.35 116.45 68.35 116.45 68.35 116.45 68.35 116.45 270.53 116.45 270.53 116.45 270.53 220.75 270.53 220.75 270.53 220.75 270.53 220.75 68.35"/><polygon id="_TU_IMAGEN_AQUÍ_2" data-name="[TU IMAGEN AQUÍ]" class="cls-15" points="220.75 68.35 220.75 68.35 116.45 68.35 116.45 68.35 116.45 68.35 116.45 270.53 116.45 270.53 116.45 270.53 220.75 270.53 220.75 270.53 220.75 270.53 220.75 68.35"/></g><circle class="cls-16" cx="127" cy="153.84" r="3.34"/><circle class="cls-16" cx="127" cy="165.59" r="3.34"/><circle class="cls-16" cx="127" cy="176.96" r="3.34"/><circle class="cls-16" cx="127" cy="188.69" r="3.34"/><path class="cls-17" d="M146.19,179c.79,3.93-3.54,38.39-3.54,38.39l-1.17.66-2.36-.66s3-36.56,2.49-38.39h4.58Z"/><polygon class="cls-17" points="167.68 180.7 167.16 209.48 168.34 210.46 169.78 209.87 171.62 181 167.68 180.7"/><path class="cls-17" d="M144.62,179s-2,34.86-3.14,39.05"/><line class="cls-17" x1="168.34" y1="210.46" x2="169.39" y2="180.7"/><path class="cls-17" d="M179.48,224.68l2.22.66,1.32-.66s-1.18-36.3,0-43.24H177.9s0,26.51.7,32.55c.05.42.09.84.12,1.27Z"/><path class="cls-17" d="M205.47,215.9l1.66.44,1.13-.44s.53-34.33,1-37.39l-1.48.44h-3.23s-.27,28.22.78,35Z"/><path class="cls-17" d="M207.13,216.34s-.88-30.4,0-37.39"/><path class="cls-17" d="M151.62,172.27s-.05-4.46,3.61-5.38,23.85-1.7,23.85-1.7"/><path class="cls-17" d="M136.59,131.64s12.49,18.35,14.32,34.47c0,0,1.55,11.95,1,13.57"/><path class="cls-17" d="M204.51,179,183,181.44h-1.77s-.86,35.42.45,43.9"/><path class="cls-17" d="M177.9,181.44h-1.17L141.61,179c1.31-3.54-.53-18.08-.92-20.44s-3.54-21-4.06-26.08a4.36,4.36,0,0,1,4.19-5.24,34.24,34.24,0,0,1,22.54,4.06c11.66,6.55,15.72,33.94,15.72,33.94l3.94.39c19.91-.26,26.2,5.64,26.2,5.64v7.29"/><path class="cls-17" d="M152.05,169.92l27,1.43s2.62.13,2.62,2.62-.45,7.47-.45,7.47"/><ellipse class="cls-18" cx="173.32" cy="216.03" rx="42.98" ry="10.61"/><path class="cls-13" d="M270.87,315c0,7.95,0,15.32-.1,17l-14.45,1.49c-1.3.13-2.61.19-3.9.19a38.15,38.15,0,0,1-29.1-13.47,41.17,41.17,0,0,1-9.8-27.92c.76-24,11.79-48.36,11-72.8l.61,0V185.69A2,2,0,0,0,225,185l-3.42-8.54a41.6,41.6,0,0,1-3-15.46v-8.32a11.85,11.85,0,0,1,7.29-10.93,9.15,9.15,0,0,1,12.54,6.95l.41,2.5a56,56,0,0,0,9.78,23.56l1.6,2.25a35.25,35.25,0,0,1,5.84,13.08l13.55,61.74c0,.1,0,.21,0,.31l1.06,24.41a1.82,1.82,0,0,1-.16.82,65.28,65.28,0,0,1,.5,8.08,63.15,63.15,0,0,1-.34,6.63S270.84,304.08,270.87,315Z"/><path class="cls-13" d="M242.14,165.47a17.84,17.84,0,0,1-10.28-18.84"/><path class="cls-13" d="M240.36,179.57a8.79,8.79,0,0,0,8.09-3.4"/><path class="cls-13" d="M225.34,184.9a9.14,9.14,0,0,0,10.36,5.6"/><path class="cls-13" d="M241.22,332a38.14,38.14,0,0,1-17.9-11.79,41.17,41.17,0,0,1-9.8-27.92c.59-18.72,7.45-37.71,10.06-56.77"/><path class="cls-13" d="M108.08,270.43l-9-5.67c-2.52-1.6-3.45-5.18-2.36-9.1l.14-.49a14.83,14.83,0,0,1,4.73-7.3h0c3-2.5,6.55-3.11,9-1.56l9.08,5.76c3.56,2.26,3.85,8.21.63,13.28h0C117.14,270.42,111.65,272.69,108.08,270.43Z"/><path class="cls-13" d="M109.18,266a6.92,6.92,0,0,1,7.45-10.39"/><path class="cls-13" d="M109.18,266c-2.66-.87-5.33-4.09-5.35-6.89a6.92,6.92,0,0,1,4.55-6.4c2.64-.9,6.55.68,8.25,2.9"/></g><circle class="cls-19" cx="172.5" cy="172.5" r="172.5"/><circle class="cls-19" cx="172.5" cy="172.5" r="172.5"/></svg>