<svg xmlns="http://www.w3.org/2000/svg" viewBox="0 0 50.31 50.07"><defs><style>.cls-1{fill:#e6e6e6;}.cls-2{fill:#13123e;}.cls-3,.cls-5{fill:none;}.cls-3,.cls-4,.cls-5{stroke:#13123e;stroke-miterlimit:10;}.cls-3{stroke-width:0.66px;}.cls-4{fill:#036;}.cls-4,.cls-5{stroke-width:0.5px;}</style></defs><g id="Capa_2" data-name="Capa 2"><g id="Capa_1-2" data-name="Capa 1"><path class="cls-1" d="M25.27.33A24.79,24.79,0,1,0,50.06,25.12,24.79,24.79,0,0,0,25.27.33Zm.13,25.88A2.26,2.26,0,1,1,27.65,24,2.26,2.26,0,0,1,25.4,26.21Z"/><rect class="cls-2" x="17.04" y="44.05" width="16.98" height="5.69"/><line class="cls-3" x1="10.51" y1="49.74" x2="40.45" y2="49.74"/><path class="cls-3" d="M21.61.12s-3.45,8.68,0,13.15h7.93C32.43,9,30,.12,30,.12"/><path class="cls-3" d="M21.61,13.27c-.12,5.18-3.73,10.78-3.73,10.78l7.66,11,7.59-10.88c-2-1.15-3.59-10.88-3.59-10.88"/><circle class="cls-3" cx="25.61" cy="23.94" r="2.27"/><line class="cls-3" x1="25.54" y1="35.03" x2="25.61" y2="26.22"/><path class="cls-4" d="M.25,40.6A3.45,3.45,0,0,0,3.7,44.05H46.61a3.45,3.45,0,0,0,3.45-3.45V37.34H.25Z"/><path class="cls-5" d="M46.61,6.28H3.7A3.45,3.45,0,0,0,.25,9.73V37.34H50.06V9.73A3.45,3.45,0,0,0,46.61,6.28Z"/><path class="cls-3" d="M7.38,21.81C8,25.6,11,37.34,25.61,37.34c12.92,0,17-10.32,18.24-15.63"/><rect class="cls-3" x="4.35" y="16.54" width="5.13" height="5.13"/><rect class="cls-3" x="41.38" y="16.54" width="4.94" height="4.94"/></g></g></svg>