<svg xmlns="http://www.w3.org/2000/svg" viewBox="0 0 50.47 50.07"><defs><style>.cls-1{fill:#0f9;}.cls-2{fill:#13123e;}.cls-3{fill:none;}.cls-3,.cls-4,.cls-5{stroke:#13123e;stroke-miterlimit:10;stroke-width:0.66px;}.cls-4{fill:#fff;}.cls-5{fill:#3cc;}</style></defs><g id="Capa_2" data-name="Capa 2"><g id="Capa_1-2" data-name="Capa 1"><polygon class="cls-1" points="41.46 21.48 41.46 16.54 43.84 16.54 43.84 0.12 7.33 0.12 7.33 16.54 9.57 16.54 9.57 21.67 7.33 21.67 7.33 37.34 43.84 37.34 43.84 21.48 41.46 21.48"/><rect class="cls-2" x="17.12" y="44.05" width="16.98" height="5.69"/><line class="cls-3" x1="10.59" y1="49.74" x2="40.53" y2="49.74"/><path class="cls-3" d="M21.69.12s-3.45,8.68,0,13.15h7.93C32.51,9,30.09.12,30.09.12"/><path class="cls-3" d="M21.69,13.27C21.57,18.45,18,24.05,18,24.05l7.66,11,7.59-10.88c-2-1.15-3.59-10.88-3.59-10.88"/><circle class="cls-4" cx="25.69" cy="23.94" r="2.27"/><line class="cls-3" x1="25.62" y1="35.03" x2="25.69" y2="26.22"/><path class="cls-5" d="M.33,40.6a3.45,3.45,0,0,0,3.45,3.45H46.69a3.45,3.45,0,0,0,3.45-3.45V37.34H.33Z"/><path class="cls-3" d="M46.69,6.28H3.78A3.45,3.45,0,0,0,.33,9.73V37.34H50.14V9.73A3.45,3.45,0,0,0,46.69,6.28Z"/><path class="cls-3" d="M7.46,21.81c.59,3.79,3.6,15.53,18.23,15.53,12.92,0,17-10.32,18.25-15.63"/><rect class="cls-3" x="4.44" y="16.54" width="5.13" height="5.13"/><rect class="cls-3" x="41.46" y="16.54" width="4.94" height="4.94"/></g></g></svg>