<svg xmlns="http://www.w3.org/2000/svg" viewBox="0 0 642.32 642.32"><defs><style>.cls-1,.cls-3{fill:none;stroke-miterlimit:10;}.cls-1{stroke:#fff;}.cls-2{fill:#13123e;}.cls-3{stroke:#0f9;stroke-width:20px;}</style></defs><g id="Capa_2" data-name="Capa 2"><g id="Capa_3" data-name="Capa 3"><circle class="cls-1" cx="321.16" cy="321.16" r="320.66"/></g><g id="Capa_1-2" data-name="Capa 1"><path class="cls-2" d="M479.29,151.63H163A61.14,61.14,0,0,0,102,212.7V430.25A61.14,61.14,0,0,0,163,491.32H479.29a61.14,61.14,0,0,0,61.06-61.07V212.7A61.14,61.14,0,0,0,479.29,151.63ZM405,204.47h0ZM510.81,481.64,365.67,336.93l-2.19,2.2a61.17,61.17,0,0,1-43.55,18h0a61.08,61.08,0,0,1-43.3-17.81L136.51,478.65l-7-7.09h0l-7.05-7.09L262.48,325.23,118.86,181.61l7.07-7.07h0l7.07-7.08L290.54,325a41.28,41.28,0,0,0,29.39,12.17h0A41.26,41.26,0,0,0,349.32,325L505.79,168l7.08,7.06h0l7.08,7L379.79,322.76,524.93,467.48Z"/><line class="cls-3" x1="294.79" y1="204.47" x2="419.34" y2="204.47"/></g></g></svg>