<svg xmlns="http://www.w3.org/2000/svg" viewBox="0 0 642.32 642.32"><defs><style>.cls-1{fill:none;stroke:#fff;stroke-miterlimit:10;}.cls-2{fill:#036;}.cls-3{fill:#f9f8f6;}.cls-4{fill:#e6e5e5;}.cls-5{fill:#fff;}.cls-6{fill:#fbdab9;}.cls-7{fill:#faca9a;}.cls-8{fill:#e5a96e;}.cls-9{fill:#facb9a;}.cls-10{fill:#fae3c0;}.cls-11{fill:#b3a48f;}.cls-12{fill:#2c252b;}.cls-13{fill:#766650;}.cls-14{fill:#fbd2a5;}.cls-15{fill:#fcd4a1;}.cls-16{fill:#272929;}.cls-17{fill:#786651;}.cls-18{fill:#27292a;}.cls-19{fill:#2b2524;}.cls-20{fill:#b4a48e;}.cls-21{fill:#282929;}.cls-22{fill:#989899;}.cls-23{fill:#1d1d1b;}.cls-24{fill:#f4dab7;}.cls-25{fill:#ffe6bd;}</style></defs><g id="Capa_2" data-name="Capa 2"><g id="Capa_3" data-name="Capa 3"><circle class="cls-1" cx="321.16" cy="321.16" r="320.66"/></g><g id="Capa_2-2" data-name="Capa 2"><g id="Capa_2-3" data-name="Capa 2"><g id="Capa_1-2" data-name="Capa 1-2"><path class="cls-2" d="M103.13,555.13q5.37-26,10.71-52c1.69-8.23,2.65-16.66,5.82-24.51,7.2-17.83,20.28-28.75,39.28-32.08,12.47-2.19,25.12-.26,37.67-1a4.87,4.87,0,0,1,3.68-1.23c13.73,0,27.47-.49,41.18.26,2.55.58,3.25,2.78,4.15,4.8,10,22.56,19.51,45.31,29.32,68,8.51,20.17,17.21,40.27,25.85,60.38,6,13.87,11.84,27.77,17.76,41.65.69,1.61,1.11,3.37,2.24,4.76,1.66-.26,1.69-1.67,2.1-2.67,12.65-30.32,26-60.32,38.63-90.66,1.87-4.5,4.22-8.81,5.83-13.43,9.77-22.66,19.35-45.41,29.34-68,.77-1.73,1.29-3.68,3.32-4.52s4.41-.49,6.62-.49h65.82c28,0,48.85,16.65,54.48,44.12q6.39,31.14,12.44,62.36c.28,1.46.63,2.92-.23,4.31-7,7.72-15.23,14-23.4,20.28a278.42,278.42,0,0,1-42.42,27.4c-2-2.48-1.85-5.57-2.15-8.45-1.6-15.48-3.2-31-5.07-46.39-.53-4.42-.36-8.88-.85-13.3-.1-.92.41-2-.33-2.47a60.87,60.87,0,0,1,.73,9.81c.26,20.46-.17,40.92.27,61.38a17.25,17.25,0,0,1-.48,3.5c-25.31,13.36-52.2,22.27-80.12,28.1a312.4,312.4,0,0,1-77.72,6.2,318.7,318.7,0,0,1-130.07-33.74,3.56,3.56,0,0,1-.66-.57c-.94-3-.27-6.17-.28-9.25V544.85c0-4,.58-7.9.55-10.43-1.29,20.73-4.25,42.72-6.78,64.77-.15,1.31-.22,2.67-1.36,3.63-21.21-11.06-40.51-24.87-58.53-40.54-2.11-1.83-4.28-3.61-6.42-5.41C103.39,556.48,102.78,556.05,103.13,555.13Z"/><path class="cls-3" d="M89,541.7l7.91,8.11c-4.41,2.8-7,2.45-6.8-3.63C90.15,544.81,86.42,544,89,541.7Z"/><path class="cls-3" d="M103.13,555.13c.31.58.61,1.17.91,1.75-.9.54.27,1.59-.34,1.94-.84.48-1.3-.49-1.67-1-.63-.91-1.15-1.74-2.39-.94h0c-1.11-2.27-3.85-3.93-2.69-7.06Z"/><path class="cls-3" d="M99.64,556.86c.27.76.85,1.55-.16,2.21-.37.25-1,.37-1-.15a2.18,2.18,0,0,1,1.17-2.06Z"/><path d="M415.28,165.51c5.71,9.15,11.49,18.22,15.49,28.35,5.13,13,6.81,26.58,8.67,40.2,4.36,32,10,63.72,22.12,93.88,8.88,22.13,20.76,42.25,40.18,56.95,2.44,1.85,1.37,2.89-.17,4.44-16.77,17-36.51,29.59-58.12,39.4a189.31,189.31,0,0,1-45.09,14.44,7.52,7.52,0,0,0-1.62.71,2,2,0,0,1-2.45.27c-6.91-3.48-14.22-6.21-20.56-10.79a5.22,5.22,0,0,1-1.06-2c-.38-9.09-.63-18.18-.14-27.27.36-2.27,2.12-3.45,3.73-4.74,13.31-10.7,23.38-23.79,29.38-39.87a73.75,73.75,0,0,0,5.13-24.18,17.42,17.42,0,0,1,1.49-6.89,3.53,3.53,0,0,1,2.06-1.53c5.33-1.28,8.38-5,10.44-9.72.24-.4.48-.78.71-1.18a249.77,249.77,0,0,0,0-27,11.89,11.89,0,0,0-.68-1.2,10.7,10.7,0,0,1-.59-1.23c-1.37-4.32-3.91-7.55-8.31-9.13-1.41-.5-2.73-1.2-3.2-2.82-.74-9.44,0-18.9-.4-28.33-.4-1.17-.23-2.91-2.38-2.34a112,112,0,0,1-63.48,3.53c-18.74-4.37-35.16-13.18-48.23-27.63-2.74-3-3.17-3.14-6,.55-10.24,13.38-23.88,21.89-39.76,27.1-3.25,1.06-6.63,1.55-9.93,2.39a92.45,92.45,0,0,0-11.12,1.34,2.6,2.6,0,0,0-1.12.73c-1,5.67-.21,11.37-.45,17-.09,1.9.15,3.81-.32,5.67-.49,1.59-1.82,2.27-3.21,2.76-4.38,1.55-6.87,4.79-8.28,9.05a7,7,0,0,1-.58,1.24c-.24.4-.48.8-.69,1.22a236.11,236.11,0,0,0,.08,27l.74,1.15c2,4.65,4.91,8.24,10.07,9.62,2.54.67,2.91,3,3.5,5.16a87.57,87.57,0,0,0,13.38,43.6c5.55,9.07,12.87,16.55,20.92,23.37,1.56,1.33,3.47,2.34,4.11,4.51a15.15,15.15,0,0,1-.06,6c-1.21,7.27-.1,14.6-.62,21.87a5.12,5.12,0,0,1-.34,1.44,4.19,4.19,0,0,1-2.07,2.18c-7,3.28-13.36,7.84-21,9.74a206.92,206.92,0,0,1-83.66-36,25.47,25.47,0,0,1-6.22-5.63c-5.28-4.53-10.49-9.14-15.35-14.14-1.39-1.43-1.92-2.27,0-3.77,22.82-17.47,35.38-41.73,44.53-68.12,9.35-27,14.62-54.87,17.93-83.11,2.69-23,7.89-44.89,21.54-64,20.12-28.22,47.19-45.6,81.68-49.74,43.7-5.24,79.54,10.18,107.75,43.76A20.09,20.09,0,0,0,415.28,165.51Z"/><path class="cls-4" d="M368.27,517.74c-6.33,15-12.61,30-19,44.92q-13,30.62-26.22,61.18c-.46,1.06-1,2.08-1.53,3.15-1.75-.51-1.8-2-2.29-3.15q-22.53-52.4-45-104.81a5.65,5.65,0,0,1-.24-1.29c12.31-7.88,23.47-17.32,35.3-25.85,3.7-2.68,7.34-5.44,10.87-8.34a2.49,2.49,0,0,1,1.86,0C337.39,495,352.36,507,368.27,517.74Z"/><path class="cls-5" d="M320.24,484.05c-3.72,5.08-9.38,7.84-14.17,11.61-9.25,7.27-18.85,14.09-28.29,21.11-1.14.84-2.08,2.26-3.75,1l-26.61-61.56c-1.52-3.53-3.09-7-4.64-10.56l2.77-1.75L268.1,433c2.64-.58,4.06,1.29,5.58,2.84,10,10.24,20.22,20.24,30.37,30.33,5,5,9.89,10.12,15.12,14.89C320,481.81,321,482.64,320.24,484.05Z"/><path class="cls-5" d="M368.27,517.74c-1.28.84-2.16,0-3.12-.69l-42.31-31.5c-.4-.3-.52-1-.78-1.5-.81-1.45.35-2.19,1.16-2.95,15.53-14.58,30.3-29.93,45.49-44.86,1.5-1.48,2.64-3.76,5.38-3.3l22.65,10.94,2.51,1.91c-5.89,13.37-11.49,26.87-17.44,40.22C377.14,496.5,373,507.26,368.27,517.74Z"/><path class="cls-6" d="M412.73,328c-.76,19.28-5.8,37.17-17.19,53A99.36,99.36,0,0,1,373.36,403c-.8,2.51-3,3.6-5,4.73q-47.17,25.72-94.36,0c-2.08-1.13-4.23-2.22-5-4.72-21.05-15.43-34.08-35.82-38.07-61.74-.47-3.06-.43-6.19-.63-9.28-2.46-13.85-.69-27.81-1-41.72-.11-4.53-1.44-9-.39-13.6.1-.23.21-.47.32-.7.2-.45.42-.91.63-1.36.69-6.34.26-12.71.26-19.06,0-3.6,1.08-5.42,5-5.5,2.51-.06,5.2.19,7.57-1.18,7-1.88,14-3.55,20.58-6.72a79.82,79.82,0,0,0,30.09-25c.79-1.08,1.21-3.34,3.4-1C328.85,251,368,255.49,411.09,242.5l.54.62c1.41,5.93.42,12,.69,17.94.21,4.53-.35,9.08.36,13.6.22.48.45,1,.68,1.44a5,5,0,0,1,.55,3c-1.18,15.29-.58,30.59-.39,45.88A3.81,3.81,0,0,1,412.73,328Z"/><path class="cls-7" d="M374.09,432.94c-2.57,1.07-4.07,3.37-5.94,5.21q-22.71,22.37-45.37,44.79a6.58,6.58,0,0,0-.72,1.11h-1.82q-11.83-11.82-23.65-23.66T273,436.6c-1.45-1.47-2.86-3-4.89-3.62a.64.64,0,0,1-.18-.42,6.65,6.65,0,0,0,.61-1.33c.28-2.81.07-5.62.14-8.43.12-4.39,1-4.94,5.09-3.06,3.09,1.4,6.12,3,9.31,4.17,28.81,10.82,57.07,9.75,84.74-3.92,5.07-2.5,5.32-2.35,5.38,3.27a65.47,65.47,0,0,0,.18,8.86Z"/><path class="cls-8" d="M373.37,432.12c-1.39-3.27-.39-6.69-.61-10-.13-2.11.09-3.49-2.85-1.86-17.71,9.79-36.87,13.32-56.87,12a98.41,98.41,0,0,1-37-10c-2-1-3.93-1.9-6.11-3-1.17,4.52.61,8.88-1.13,12.91a101.09,101.09,0,0,1-.14-23c.08-2.05.15-4.09.23-6.14,29.91,21.56,74.47,21.56,104.44,0Z"/><path class="cls-9" d="M229.52,275.81c1.74,18.74.55,37.51.72,56.26-.1-3-1.57-4.19-4.58-4.91-4.75-1.15-7.42-4.85-8.67-9.53a2.85,2.85,0,0,1-.39-1.54c.26-7.09.08-14.19.11-21.28a56.49,56.49,0,0,1,.49-8.32c1-6.56,5.53-9.43,11.44-10.81a.59.59,0,0,1,.83.07Z"/><path class="cls-7" d="M412.73,328c-1.58-8.45-.65-17-.79-25.48-.14-8.8-.34-17.61.82-26.37l-.18-.56a1,1,0,0,1,1.08.08c5.93,1.36,10.41,4.26,11.44,10.81,1.07,9.85.09,19.74.61,29.6a2.69,2.69,0,0,1-.39,1.54C423.52,324,419.34,327.42,412.73,328Z"/><path class="cls-10" d="M242.6,248.9c.43.2,1.36.71,1,.8-2.42.56-5,1.27-7.37,1-4.43-.45-5.17,1.58-5,5.37.26,5.3.08,10.63.05,16,0,1.28.41,2.72-1,3.66-1.75-5.64-.53-11.42-.73-17.12-.11-2.88-.83-5.92.8-8.68Z"/><path class="cls-11" d="M412.76,276.11l-.83-.39c-1.06-9.13-.15-18.3-.49-27.45-.07-1.73.52-3.55-.48-5.2a.37.37,0,0,1,0-.5c2.71-1.2,1.31,1.35,1.91,2.08a281.2,281.2,0,0,1-.09,31A.41.41,0,0,1,412.76,276.11Z"/><path class="cls-12" d="M412.82,275.63l.09-31c1.51,2.13.68,4.55.71,6.81.12,8.06,0,16.11,0,24.17l-.42.11Z"/><path class="cls-13" d="M425.32,317.58l-.28-1c-.15-9.79-.89-19.59.37-29.36a4.37,4.37,0,0,1,.72.06,183.94,183.94,0,0,1-.15,30.24A3.68,3.68,0,0,0,425.32,317.58Z"/><path class="cls-14" d="M217.2,286.44c1.53,2.78.77,5.79.68,8.66-.2,7.18.93,14.41-.63,21.55a2.64,2.64,0,0,1-1-2.31c-.05-8.49-.15-17,.06-25.47a3.55,3.55,0,0,1,.6-1.63A3.19,3.19,0,0,1,217.2,286.44Z"/><path class="cls-15" d="M425.41,287.24q-.18,14.68-.37,29.36c-1.55-6.83-.46-13.75-.61-20.63-.08-3.15-.93-6.46.67-9.53A2.61,2.61,0,0,1,425.41,287.24Z"/><path class="cls-16" d="M216.33,317.5c-.11-.09-.32-.17-.33-.27-1.05-10-1.41-20,.18-29.93C217,297.36,216.68,307.43,216.33,317.5Z"/><path class="cls-17" d="M216.33,317.5l-.15-30.2c.23,0,.47-.05.71-.06l.36,29.41c-.09.31-.18.62-.26.93A5,5,0,0,0,216.33,317.5Z"/><path class="cls-18" d="M426,317.54l.15-30.24c1,.73.88,1.78.88,2.81v24.27C427,315.53,427.24,316.81,426,317.54Z"/><path class="cls-19" d="M229.52,275.81a1.67,1.67,0,0,1-.88-.13V254.12c0-1.41-.48-3,.83-4.14a141.75,141.75,0,0,1,0,25.73Z"/><path class="cls-20" d="M229.47,275.66V249.93h.91q0,12.9-.07,25.8h-.43Z"/><path class="cls-21" d="M268.7,409.17q.07,11.5.14,23l-.92.38q-.06-10.31-.14-20.62C267.77,410.91,267.72,409.87,268.7,409.17Z"/><path class="cls-22" d="M327.49,563.22a6.34,6.34,0,1,1-12.68-.16h0a6.34,6.34,0,0,1,12.68.16Z"/><path class="cls-22" d="M327.49,523.68a6.34,6.34,0,1,1-12.67.6h0a6,6,0,0,1,5.23-6.68,4.9,4.9,0,0,1,.77-.05C324.77,517.43,327.37,519.81,327.49,523.68Z"/><path class="cls-5" d="M369.2,340.7c3.19,1.08,1.71,3.3,1,5-6.59,17.21-18.85,28.49-36.64,32.93a52.2,52.2,0,0,1-60.72-30.82c-.85-2.06-3.87-4.94.27-7.1a3.76,3.76,0,0,1,2.12-.49c30.32.12,60.64,0,91,.07C367.2,340.26,368.27,340,369.2,340.7Z"/><path class="cls-23" d="M281.62,301.81a13,13,0,1,1,13.49-12.51h0A13.1,13.1,0,0,1,281.62,301.81Z"/><path class="cls-23" d="M360.27,301.81a13.18,13.18,0,1,1,13.18-13.55c0,.24,0,.48,0,.72A13.08,13.08,0,0,1,360.27,301.81Z"/><path class="cls-24" d="M369.2,340.7H273.11c.35-.67.74-1.3,1.62-1.27,30.25.86,60.51.14,90.77.39C366.78,339.81,368.2,339.43,369.2,340.7Z"/><path class="cls-25" d="M411,243.07c1.7,1,.87,2.64.89,4,.09,9.57.07,19.13.08,28.69-1.52-1.26-.89-3-.9-4.52C411,261.81,411,252.44,411,243.07Z"/></g></g></g></g></svg>