<svg xmlns="http://www.w3.org/2000/svg" viewBox="0 0 640.33 640.7"><defs><style>.cls-1{fill:#003;}.cls-2{fill:#f9b233;}.cls-3{fill:#036;}.cls-4{fill:#f9f8f6;}.cls-5{fill:#7d4e24;}.cls-6{fill:#e6e5e5;}.cls-7{fill:#fff;}.cls-8{fill:#fbdab9;}.cls-9{fill:#faca9a;}.cls-10{fill:#e5a96e;}.cls-11{fill:#facb9a;}.cls-12{fill:#fae3c0;}.cls-13{fill:#b3a48f;}.cls-14{fill:#2c252b;}.cls-15{fill:#766650;}.cls-16{fill:#fbd2a5;}.cls-17{fill:#fcd4a1;}.cls-18{fill:#272929;}.cls-19{fill:#786651;}.cls-20{fill:#27292a;}.cls-21{fill:#2b2524;}.cls-22{fill:#b4a48e;}.cls-23{fill:#282929;}.cls-24{fill:#989899;}.cls-25{fill:#1d1d1b;}.cls-26{fill:#f4dab7;}.cls-27{fill:#ffe6bd;}</style></defs><g id="Capa_2" data-name="Capa 2"><g id="Capa_1-2" data-name="Capa 1"><path class="cls-1" d="M88,540.89C76.24,527.73,64.88,514.28,55,499.62c-30.19-44.86-48.34-94.09-53.52-148A320.63,320.63,0,0,1,207.71,20.45c135.44-51.23,290-3.73,373.48,114.76q62.12,88.17,59,196a259.74,259.74,0,0,1-6.69,54.1c-11.42-12.81-24.07-24.41-36.09-36.63-17.77-18-35.79-35.84-53.65-53.78-10.55-10.6-21.17-21.13-31.75-31.69q-19.65-19.62-39.25-39.29-20.1-20.1-40.25-40.17c-6.29-6.25-12.21-12.88-19.12-18.5-6.23-6.53-12.26-13.25-19.22-19.06a112.72,112.72,0,0,0-60.82-25.9c-30.24-3.44-57.81,3.83-82.13,21.84-25.37,18.79-41.16,43.94-46,75.41-2.52,16.39-4.43,32.87-7.53,49.18-4.68,24.67-10.8,48.94-21.6,71.73-8.12,17.13-18.26,32.92-33.51,44.77-2.87,2.23-2.74,3.79-.35,6.36,3.94,4.24,9.09,7.19,12.5,11.95.41.59-.29,1.48,0,1.69,14.25,11.48,26,25.54,39.16,38.11,1.06,1,3.2,2.25,1,4.25-9.3,1.17-18.64.3-28,.51a51.28,51.28,0,0,0-16.58,2.78c-18.45,6.71-29.31,20-33.3,39-4.11,19.58-7.82,39.25-11.81,58.85-.5,2.46-.77,5-2.25,7.16-4.39,1.38-5.1-2.63-7-4.84l0,0A21.85,21.85,0,0,1,88,540.89Z"/><path class="cls-2" d="M102.12,554.32q5.37-26,10.71-52c1.69-8.23,2.65-16.66,5.82-24.51,7.2-17.83,20.28-28.75,39.28-32.08,12.47-2.19,25.12-.26,37.67-1a4.84,4.84,0,0,1,3.68-1.23c13.73,0,27.47-.49,41.18.26,2.55.58,3.25,2.78,4.15,4.8,10,22.56,19.51,45.31,29.32,67.95,8.51,20.17,17.21,40.27,25.85,60.38,6,13.87,11.84,27.77,17.76,41.65.69,1.61,1.11,3.37,2.24,4.76,1.66-.26,1.69-1.67,2.1-2.67,12.65-30.32,26-60.32,38.63-90.66,1.87-4.5,4.22-8.81,5.83-13.43,9.77-22.66,19.35-45.41,29.34-68,.77-1.73,1.29-3.68,3.32-4.52s4.41-.49,6.62-.49q32.91,0,65.82,0c28,0,48.85,16.65,54.48,44.12q6.39,31.14,12.44,62.36c.28,1.46.63,2.92-.23,4.31-7,7.72-15.23,13.95-23.4,20.28A278.57,278.57,0,0,1,472.31,602c-2-2.48-1.85-5.57-2.15-8.45-1.6-15.48-3.2-30.95-5.07-46.39-.53-4.42-.36-8.88-.85-13.3-.1-.92.41-2-.33-2.47a61.1,61.1,0,0,1,.73,9.81c.26,20.46-.17,40.92.27,61.38a17.77,17.77,0,0,1-.48,3.5c-25.31,13.36-52.2,22.27-80.12,28.1a312.48,312.48,0,0,1-77.72,6.2,318.74,318.74,0,0,1-130.07-33.74,3.5,3.5,0,0,1-.66-.57c-.94-3.05-.27-6.17-.28-9.25q0-26.39,0-52.78c0-4,.58-7.9.55-10.43-1.29,20.73-4.25,42.72-6.78,64.77-.15,1.31-.22,2.67-1.36,3.63-21.21-11.06-40.51-24.87-58.53-40.54-2.11-1.83-4.28-3.61-6.42-5.41C102.38,555.67,101.77,555.24,102.12,554.32Z"/><path class="cls-3" d="M538.13,554.35c-3.88-19.1-8-38.15-11.55-57.32-2.69-14.69-6.64-28.53-18.32-38.9-9-8-19.43-12.9-31.3-13.09-26.23-.43-52.48-.09-78.72-.06-1.54,0-2.91-.16-2.54-2.28,2.79-2.69,6.58-2.38,10-3.24,34.39-8.75,65.09-24.4,91.08-48.8,4.55-4.28,4.5-4.49-.15-8.36-14.43-12-24.42-27.2-32.34-44C450.45,308.94,444,277.66,439.07,246c-1.51-9.66-2.71-19.37-4.1-29-2.52-17.51-9.51-33.25-19.3-47.84-.87-1.29-2.3-2.48-1.4-4.37,5.57,3.49,9.56,8.72,14.16,13.23,16.34,16,32.29,32.47,48.49,48.65,22.26,22.24,44.69,44.33,66.94,66.58q33.69,33.7,67.18,67.59,10.29,10.33,20.65,20.61a5.93,5.93,0,0,1,1.81,3.91c-3.65,20.17-10,39.53-17.93,58.36A315.07,315.07,0,0,1,538.13,554.35Z"/><path class="cls-1" d="M168,602c.85-13.24,2.75-26.36,4.24-39.53,1.08-9.66,2-19.34,2.92-29,.14-1.43-.14-3,1.55-4.32.07,1.48.19,2.69.19,3.91q0,32.91,0,65.82c0,2.43.25,4.93-1,7.2Z"/><path class="cls-1" d="M464.43,606.09c-1.42-1.6-1-3.63-1-5.41-.1-23.69-.07-47.38-.07-71.06l1.29-.14q3.81,36.27,7.63,72.53Z"/><path class="cls-4" d="M88,540.89,95.91,549c-4.41,2.8-7,2.45-6.8-3.63C89.14,544,85.41,543.21,88,540.89Z"/><path class="cls-4" d="M102.12,554.32c.31.58.61,1.17.91,1.75-.9.54.27,1.59-.34,1.94-.84.48-1.3-.49-1.67-1-.63-.91-1.15-1.74-2.39-.94h0c-1.11-2.27-3.85-3.93-2.69-7.06Z"/><path class="cls-4" d="M98.63,556.05c.27.76.85,1.55-.16,2.21-.37.25-1,.37-1-.15a2.18,2.18,0,0,1,1.17-2.06Z"/><path class="cls-5" d="M414.27,164.7c5.71,9.15,11.49,18.22,15.49,28.35,5.13,13,6.81,26.58,8.67,40.2,4.36,32,10,63.72,22.12,93.88,8.88,22.13,20.76,42.25,40.18,56.95,2.44,1.85,1.37,2.89-.17,4.44-16.77,17-36.51,29.59-58.12,39.4a189.46,189.46,0,0,1-45.09,14.44,7.68,7.68,0,0,0-1.62.71,2,2,0,0,1-2.45.27c-6.91-3.48-14.22-6.21-20.56-10.79a5.17,5.17,0,0,1-1.06-2c-.38-9.09-.63-18.18-.14-27.27.36-2.27,2.12-3.45,3.73-4.74,13.31-10.7,23.38-23.79,29.38-39.87a74,74,0,0,0,5.13-24.18,17.42,17.42,0,0,1,1.49-6.89,3.46,3.46,0,0,1,2.06-1.53c5.33-1.28,8.38-5,10.44-9.72.24-.4.48-.78.71-1.18a252.37,252.37,0,0,0,.05-26.95,12.8,12.8,0,0,0-.68-1.2,9.26,9.26,0,0,1-.59-1.23c-1.37-4.32-3.91-7.55-8.31-9.13-1.41-.5-2.73-1.2-3.2-2.82-.74-9.44,0-18.9-.4-28.33-.4-1.17-.23-2.91-2.38-2.34a112.08,112.08,0,0,1-63.48,3.53c-18.74-4.37-35.16-13.18-48.23-27.63-2.74-3-3.17-3.14-6,.55C281,233,267.36,241.51,251.48,246.72c-3.25,1.06-6.63,1.55-9.93,2.39a92.45,92.45,0,0,0-11.12,1.34,2.6,2.6,0,0,0-1.12.73c-1,5.67-.21,11.37-.45,17-.09,1.9.15,3.81-.32,5.67-.49,1.59-1.82,2.27-3.21,2.76-4.38,1.55-6.87,4.79-8.28,9.05a7.35,7.35,0,0,1-.58,1.24c-.24.4-.48.8-.69,1.22a234.36,234.36,0,0,0,.08,27l.74,1.15c2,4.65,4.91,8.24,10.07,9.62,2.54.67,2.91,3,3.5,5.16a87.47,87.47,0,0,0,13.38,43.6c5.55,9.07,12.87,16.55,20.92,23.37,1.56,1.33,3.47,2.34,4.11,4.51a15.11,15.11,0,0,1-.06,6c-1.21,7.27-.1,14.6-.62,21.87a5.21,5.21,0,0,1-.34,1.44,4.24,4.24,0,0,1-2.07,2.18c-7,3.28-13.36,7.84-21,9.74a206.88,206.88,0,0,1-83.66-36,25.45,25.45,0,0,1-6.22-5.63c-5.28-4.53-10.49-9.14-15.35-14.14-1.39-1.43-1.92-2.27,0-3.77,22.82-17.47,35.38-41.73,44.53-68.12,9.35-27,14.62-54.87,17.93-83.11,2.69-23,7.89-44.89,21.54-64,20.12-28.22,47.19-45.6,81.68-49.74,43.7-5.24,79.54,10.18,107.75,43.76C413.21,163.67,413.75,164.17,414.27,164.7Z"/><path class="cls-3" d="M154.63,402.25c14.24,10.36,29.08,19.65,45.32,26.62A201.88,201.88,0,0,0,242,442.22a21,21,0,0,1,2.5.84c0,2.09-1.51,1.7-2.77,1.75l-46.17-.07q-19.93-20.08-39.88-40.16C155,403.89,153.77,403.61,154.63,402.25Z"/><path class="cls-6" d="M367.26,516.93c-6.33,15-12.61,30-19,44.92q-13,30.61-26.22,61.18c-.46,1.06-1,2.08-1.53,3.15-1.75-.51-1.8-2-2.29-3.15q-22.53-52.39-45-104.81a5.45,5.45,0,0,1-.24-1.29c12.31-7.88,23.47-17.32,35.3-25.85,3.7-2.68,7.34-5.44,10.87-8.34a2.45,2.45,0,0,1,1.86,0C336.38,494.23,351.35,506.21,367.26,516.93Z"/><path class="cls-7" d="M319.23,483.24c-3.72,5.08-9.38,7.84-14.17,11.61-9.25,7.27-18.85,14.09-28.29,21.11-1.14.84-2.08,2.26-3.75,1q-13.31-30.78-26.61-61.56c-1.52-3.53-3.09-7-4.64-10.56l2.77-1.75,22.55-10.89c2.64-.58,4.06,1.29,5.58,2.84,10,10.24,20.22,20.24,30.37,30.33,5,5,9.89,10.12,15.12,14.89C319,481,320,481.83,319.23,483.24Z"/><path class="cls-7" d="M367.26,516.93c-1.28.84-2.16,0-3.12-.69q-21.15-15.74-42.31-31.5c-.4-.3-.52-1-.78-1.5-.81-1.45.35-2.19,1.16-2.95,15.53-14.58,30.3-29.93,45.49-44.86,1.5-1.48,2.64-3.76,5.38-3.3l22.65,10.94,2.51,1.91c-5.89,13.37-11.49,26.87-17.44,40.22C376.13,495.69,372,506.45,367.26,516.93Z"/><path class="cls-8" d="M411.72,327.15c-.76,19.28-5.8,37.17-17.19,53a99.57,99.57,0,0,1-22.18,22.05c-.8,2.51-3,3.6-5,4.73q-47.18,25.73-94.36,0c-2.08-1.13-4.23-2.22-5-4.72-21.05-15.43-34.08-35.82-38.07-61.74-.47-3.06-.43-6.19-.63-9.28-2.46-13.85-.69-27.81-1-41.72-.11-4.53-1.44-9-.39-13.6.1-.23.21-.47.32-.7.2-.45.42-.91.63-1.36.69-6.34.26-12.71.26-19.06,0-3.6,1.08-5.42,5-5.5,2.51-.06,5.2.19,7.57-1.18,7-1.88,14-3.55,20.58-6.72a79.78,79.78,0,0,0,30.09-25c.79-1.08,1.21-3.34,3.4-1,32.09,34.83,71.21,39.33,114.33,26.34l.54.62c1.41,5.93.42,12,.69,17.94.21,4.53-.35,9.08.36,13.6.22.48.45,1,.68,1.44a5.09,5.09,0,0,1,.55,3c-1.18,15.29-.58,30.59-.39,45.88A3.81,3.81,0,0,1,411.72,327.15Z"/><path class="cls-9" d="M373.08,432.13c-2.57,1.07-4.07,3.37-5.94,5.21q-22.72,22.37-45.37,44.79a6.4,6.4,0,0,0-.72,1.11h-1.82q-11.84-11.82-23.65-23.66T272,435.79c-1.45-1.47-2.86-3-4.89-3.62a.62.62,0,0,1-.18-.42,7,7,0,0,0,.61-1.33c.28-2.81.07-5.62.14-8.43.12-4.39,1-4.94,5.09-3.06,3.09,1.4,6.12,3,9.31,4.17,28.81,10.82,57.07,9.75,84.74-3.92,5.07-2.5,5.32-2.35,5.38,3.27a65.53,65.53,0,0,0,.18,8.86Z"/><path class="cls-10" d="M372.36,431.31c-1.39-3.27-.39-6.69-.61-10-.13-2.11.09-3.49-2.85-1.86-17.71,9.79-36.87,13.32-56.87,12a98.43,98.43,0,0,1-37-10c-2-1-3.93-1.9-6.11-3-1.17,4.52.61,8.88-1.13,12.91a100.61,100.61,0,0,1-.14-23c.08-2.05.15-4.09.23-6.14,29.91,21.56,74.47,21.56,104.44,0Z"/><path class="cls-11" d="M228.51,275c1.74,18.74.55,37.51.72,56.26-.1-3-1.57-4.19-4.58-4.91-4.75-1.15-7.42-4.85-8.67-9.53a2.77,2.77,0,0,1-.39-1.54c.26-7.09.08-14.19.11-21.28a56.41,56.41,0,0,1,.49-8.32c1-6.56,5.53-9.43,11.44-10.81A.59.59,0,0,1,228.51,275Z"/><path class="cls-9" d="M411.72,327.15c-1.58-8.45-.65-17-.79-25.48-.14-8.8-.34-17.61.82-26.37l-.18-.56a1,1,0,0,1,1.08.08c5.93,1.36,10.41,4.26,11.44,10.81,1.07,9.85.09,19.74.61,29.6a2.77,2.77,0,0,1-.39,1.54C422.51,323.14,418.33,326.61,411.72,327.15Z"/><path class="cls-12" d="M241.59,248.09c.43.2,1.36.71,1,.8-2.42.56-5,1.27-7.37,1-4.43-.45-5.17,1.58-5,5.37.26,5.3.08,10.63.05,16,0,1.28.41,2.72-1,3.66-1.75-5.64-.53-11.42-.73-17.12-.11-2.88-.83-5.92.8-8.68Z"/><path class="cls-13" d="M411.75,275.3l-.83-.39c-1.06-9.13-.15-18.3-.49-27.45-.07-1.73.52-3.55-.48-5.2a.37.37,0,0,1,0-.5c2.71-1.2,1.31,1.35,1.91,2.08a280.85,280.85,0,0,1-.09,31A.43.43,0,0,1,411.75,275.3Z"/><path class="cls-14" d="M411.81,274.82l.09-31c1.51,2.13.68,4.55.71,6.81.12,8.06,0,16.11,0,24.17l-.42.11Z"/><path class="cls-15" d="M424.31,316.77l-.28-1c-.15-9.79-.89-19.59.37-29.36q.36,0,.72.06a185.06,185.06,0,0,1-.15,30.24A2.93,2.93,0,0,0,424.31,316.77Z"/><path class="cls-16" d="M216.19,285.63c1.53,2.78.77,5.79.68,8.66-.2,7.18.93,14.41-.63,21.55a2.63,2.63,0,0,1-1-2.31c-.05-8.49-.15-17,.06-25.47a3.45,3.45,0,0,1,.6-1.63A2.89,2.89,0,0,1,216.19,285.63Z"/><path class="cls-17" d="M424.4,286.43q-.18,14.69-.37,29.36c-1.55-6.83-.46-13.75-.61-20.63-.08-3.15-.93-6.46.67-9.53A2.89,2.89,0,0,1,424.4,286.43Z"/><path class="cls-18" d="M215.32,316.69c-.11-.09-.32-.17-.33-.27-1.05-10-1.41-20,.18-29.93C216,296.55,215.67,306.62,215.32,316.69Z"/><path class="cls-19" d="M215.32,316.69l-.15-30.2c.23,0,.47-.05.71-.06l.36,29.41c-.09.31-.18.62-.26.93A5,5,0,0,0,215.32,316.69Z"/><path class="cls-20" d="M425,316.73l.15-30.24c1,.73.88,1.78.88,2.81q0,12.13,0,24.27C426,314.72,426.23,316,425,316.73Z"/><path class="cls-21" d="M228.51,275a1.65,1.65,0,0,1-.88-.13c0-7.19,0-14.37,0-21.56,0-1.41-.48-3,.83-4.14a142.66,142.66,0,0,1,0,25.73Z"/><path class="cls-22" d="M228.46,274.85q0-12.86,0-25.73l.91,0q0,12.9-.07,25.8l-.43,0Z"/><path class="cls-23" d="M267.69,408.36q.07,11.5.14,23l-.92.38q-.07-10.31-.14-20.62C266.76,410.1,266.71,409.06,267.69,408.36Z"/><path class="cls-24" d="M326.48,562.41a6.34,6.34,0,0,1-12.68-.16,6.34,6.34,0,1,1,12.68.16Z"/><path class="cls-24" d="M326.48,522.87a6.34,6.34,0,0,1-12.67.6,6,6,0,0,1,6-6.73C323.76,516.62,326.36,519,326.48,522.87Z"/><path class="cls-7" d="M368.19,339.89c3.19,1.08,1.71,3.3,1,5-6.59,17.21-18.85,28.49-36.64,32.93A52.2,52.2,0,0,1,271.83,347c-.85-2.06-3.87-4.94.27-7.1a3.8,3.8,0,0,1,2.12-.49c30.32.12,60.64,0,91,.07C366.19,339.45,367.26,339.22,368.19,339.89Z"/><path class="cls-25" d="M280.61,301a13.1,13.1,0,0,1-12.77-13.23,13.13,13.13,0,1,1,26.26.72A13.1,13.1,0,0,1,280.61,301Z"/><path class="cls-25" d="M359.26,301a13.11,13.11,0,0,1-13.08-12.93,13.13,13.13,0,1,1,26.25.1A13.09,13.09,0,0,1,359.26,301Z"/><path class="cls-26" d="M368.19,339.89l-96.09,0c.35-.67.74-1.3,1.62-1.27,30.25.86,60.51.14,90.77.39C365.77,339,367.19,338.62,368.19,339.89Z"/><path class="cls-27" d="M410,242.26c1.7,1,.87,2.64.89,4,.09,9.57.07,19.13.08,28.69-1.52-1.26-.89-3-.9-4.52C410,261,410,251.63,410,242.26Z"/></g></g></svg>