<svg xmlns="http://www.w3.org/2000/svg" viewBox="0 0 642.32 642.32"><defs><style>.cls-1,.cls-4,.cls-5{fill:none;stroke-miterlimit:10;}.cls-1{stroke:#fff;}.cls-2{fill:#3cc;}.cls-3{fill:#13123e;}.cls-4{stroke:#13123e;stroke-width:14.32px;}.cls-5{stroke:#0f9;stroke-width:20px;}</style></defs><g id="Capa_2" data-name="Capa 2"><g id="Capa_3" data-name="Capa 3"><circle class="cls-1" cx="321.16" cy="321.16" r="320.66"/></g><g id="Capa_1-2" data-name="Capa 1"><polygon class="cls-2" points="207.11 293.22 504.81 269.65 504.81 352.48 223.33 375.37 207.11 293.22"/><path class="cls-3" d="M304.86,529.13a38.68,38.68,0,1,1-38.68-38.69A38.68,38.68,0,0,1,304.86,529.13Z"/><path class="cls-3" d="M458.87,529.13a38.68,38.68,0,1,1-38.68-38.7A38.68,38.68,0,0,1,458.87,529.13Z"/><polyline class="cls-4" points="89.99 141.03 169.45 141.03 227.35 406.35 200.43 445.4 499.98 445.4"/><polygon class="cls-3" points="504.81 352.48 223.33 375.37 181.57 163.93 504.81 163.93 504.81 352.48"/><line class="cls-5" x1="250.45" y1="201.97" x2="438.26" y2="201.97"/></g></g></svg>