<svg xmlns="http://www.w3.org/2000/svg" xmlns:xlink="http://www.w3.org/1999/xlink" viewBox="0 0 642.32 784.95"><defs><style>.cls-1,.cls-2,.cls-5{fill:none;}.cls-2{stroke:#fff;}.cls-2,.cls-5{stroke-miterlimit:10;}.cls-3{clip-path:url(#clip-path);}.cls-4{fill:#13123e;}.cls-5{stroke:#0f9;stroke-width:20px;}</style><clipPath id="clip-path"><polyline class="cls-1" points="642.32 0.5 642.32 641.83 1 641.83 1 0.5"/></clipPath></defs><g id="Capa_2" data-name="Capa 2"><g id="Capa_3" data-name="Capa 3"><circle class="cls-2" cx="321.16" cy="321.16" r="320.66"/></g><g id="Capa_1-2" data-name="Capa 1"><g class="cls-3"><path class="cls-4" d="M374.79,303.48H266.26A110.57,110.57,0,0,0,185.18,339l-82.7,89.76a69.06,69.06,0,0,0,50.7,115.75c1.15,0,2.32,0,3.49-.08a68.93,68.93,0,0,0,26.09-6.33l-.15,167.57A79.21,79.21,0,0,0,321,758.34,79,79,0,0,0,380.21,785c43.5,0,78.55-34.3,79.78-78.09,0-.45,0-.9,0-1.36l-1.14-167.11a69.24,69.24,0,0,0,25.52,6.05c1.17.06,2.33.08,3.48.08a69.11,69.11,0,0,0,50.85-115.6L455.89,339a110.57,110.57,0,0,0-81.1-35.55Z"/><path class="cls-4" d="M320.53,86.52A100,100,0,0,0,220.44,186.6a100.14,100.14,0,0,0,170.89,70.83,100.25,100.25,0,0,0,0-141.63,98.15,98.15,0,0,0-70.8-29.28Z"/></g><path class="cls-5" d="M384.69,155a101.4,101.4,0,0,0-71.95-29.79"/></g></g></svg>